# Blender v2.83.0 OBJ File: 'crate.blend'
# www.blender.org
mtllib crate.mtl
o cube_Cube.002
v 0.500000 0.500000 -0.500000
v -0.500000 0.500000 -0.500000
v 0.500000 -0.500000 -0.500000
v -0.500000 -0.500000 -0.500000
v 0.369601 0.369600 -0.500000
v -0.369600 0.369601 -0.500000
v 0.369601 -0.369600 -0.500000
v -0.369600 -0.369600 -0.500000
v 0.369601 0.369600 -0.427405
v -0.369600 0.369601 -0.427405
v 0.369601 -0.369600 -0.427405
v -0.369600 -0.369600 -0.427405
v 0.500000 0.500000 0.500000
v -0.500000 0.500000 0.500000
v 0.500000 -0.500000 0.500000
v -0.500000 -0.500000 0.500000
v 0.369600 0.369600 0.500000
v -0.369601 0.369600 0.500000
v 0.369600 -0.369601 0.500000
v -0.369601 -0.369600 0.500000
v 0.369600 0.369600 0.427405
v -0.369601 0.369600 0.427405
v 0.369600 -0.369601 0.427405
v -0.369601 -0.369600 0.427405
v 0.500000 0.500000 -0.500000
v 0.500000 -0.500000 -0.500000
v 0.500000 0.500000 0.500000
v 0.500000 -0.500000 0.500000
v 0.500000 0.369600 -0.369600
v 0.500000 -0.369600 -0.369600
v 0.500000 0.369600 0.369600
v 0.500000 -0.369601 0.369600
v 0.427405 0.369600 -0.369600
v 0.427405 -0.369600 -0.369600
v 0.427405 0.369600 0.369600
v 0.427405 -0.369601 0.369600
v -0.500000 0.500000 -0.500000
v -0.500000 -0.500000 -0.500000
v -0.500000 0.500000 0.500000
v -0.500000 -0.500000 0.500000
v -0.500000 0.369601 -0.369600
v -0.500000 -0.369600 -0.369600
v -0.500000 0.369600 0.369600
v -0.500000 -0.369600 0.369600
v -0.427405 0.369601 -0.369600
v -0.427405 -0.369600 -0.369600
v -0.427405 0.369600 0.369600
v -0.427405 -0.369600 0.369600
v 0.500000 -0.500000 -0.500000
v -0.500000 -0.500000 -0.500000
v 0.500000 -0.500000 0.500000
v -0.500000 -0.500000 0.500000
v 0.369601 -0.500000 -0.369600
v -0.369600 -0.500000 -0.369600
v 0.369601 -0.500000 0.369600
v -0.369600 -0.500000 0.369600
v 0.369601 -0.427405 -0.369600
v -0.369600 -0.427405 -0.369600
v 0.369601 -0.427405 0.369600
v -0.369600 -0.427405 0.369600
v 0.500000 0.500000 -0.500000
v -0.500000 0.500000 -0.500000
v 0.500000 0.500000 0.500000
v -0.500000 0.500000 0.500000
v 0.369600 0.500000 -0.369600
v -0.369601 0.500000 -0.369600
v 0.369600 0.500000 0.369600
v -0.369601 0.500000 0.369600
v 0.369600 0.427405 -0.369600
v -0.369601 0.427405 -0.369600
v 0.369600 0.427405 0.369600
v -0.369601 0.427405 0.369600
vt 0.104911 0.999968
vt 0.000033 0.000032
vt 0.104911 0.000032
vt 0.130473 0.869527
vt 0.000100 0.000100
vt 0.130473 0.130473
vt 0.869527 0.130473
vt 0.999900 0.999900
vt 0.869527 0.869527
vt 0.999900 0.000100
vt 0.000100 0.999900
vt 0.872379 0.872379
vt 0.127622 0.127622
vt 0.872379 0.127621
vt 0.104911 0.999968
vt 0.000033 0.000032
vt 0.104911 0.000032
vt 0.999968 0.000032
vt 0.000032 0.104911
vt 0.000032 0.000032
vt 0.104911 0.999968
vt 0.000032 0.999968
vt 0.000033 0.000032
vt 0.104911 0.999968
vt 0.104911 0.000032
vt 0.000100 0.000100
vt 0.130473 0.869527
vt 0.130473 0.130473
vt 0.999900 0.999900
vt 0.869527 0.130473
vt 0.869527 0.869527
vt 0.999900 0.000100
vt 0.000100 0.999900
vt 0.127622 0.127622
vt 0.872379 0.872379
vt 0.872379 0.127621
vt 0.000033 0.000032
vt 0.104911 0.999968
vt 0.104911 0.000032
vt 0.000032 0.104911
vt 0.999968 0.000032
vt 0.000032 0.000032
vt 0.104911 0.999968
vt 0.000032 0.999968
vt 0.104911 0.999968
vt 0.000033 0.000032
vt 0.104911 0.000032
vt 0.130473 0.130473
vt 0.000100 0.999900
vt 0.000100 0.000100
vt 0.869527 0.130473
vt 0.999900 0.999900
vt 0.869527 0.869527
vt 0.999900 0.000100
vt 0.130473 0.869527
vt 0.872379 0.872379
vt 0.127622 0.127622
vt 0.872379 0.127621
vt 0.104911 0.999968
vt 0.000033 0.000032
vt 0.104911 0.000032
vt 0.999968 0.000032
vt 0.000032 0.104911
vt 0.000032 0.000032
vt 0.104911 0.999968
vt 0.000032 0.999968
vt 0.000033 0.000032
vt 0.104911 0.999968
vt 0.104911 0.000032
vt 0.000100 0.000100
vt 0.130473 0.869527
vt 0.130473 0.130473
vt 0.869527 0.869527
vt 0.999900 0.000100
vt 0.869527 0.130473
vt 0.000100 0.999900
vt 0.872379 0.127621
vt 0.127621 0.872379
vt 0.872379 0.872379
vt 0.000033 0.000032
vt 0.104911 0.999968
vt 0.104911 0.000032
vt 0.000032 0.104911
vt 0.999968 0.000032
vt 0.000032 0.000032
vt 0.104911 0.999968
vt 0.000032 0.999968
vt 0.104911 0.999968
vt 0.000033 0.000032
vt 0.104911 0.000032
vt 0.130473 0.869527
vt 0.000100 0.000100
vt 0.130473 0.130473
vt 0.869527 0.130473
vt 0.999900 0.999900
vt 0.869527 0.869527
vt 0.999900 0.000100
vt 0.000100 0.999900
vt 0.872379 0.872379
vt 0.127622 0.127622
vt 0.872379 0.127621
vt 0.104911 0.999968
vt 0.000033 0.000032
vt 0.104911 0.000032
vt 0.999968 0.000032
vt 0.000032 0.104911
vt 0.000032 0.000032
vt 0.104911 0.999968
vt 0.000032 0.999968
vt 0.000033 0.000032
vt 0.104911 0.999968
vt 0.104911 0.000032
vt 0.000100 0.000100
vt 0.130473 0.869527
vt 0.130473 0.130473
vt 0.999900 0.999900
vt 0.869527 0.130473
vt 0.869527 0.869527
vt 0.999900 0.000100
vt 0.000100 0.999900
vt 0.127622 0.127622
vt 0.872379 0.872379
vt 0.872379 0.127621
vt 0.000033 0.000032
vt 0.104911 0.999968
vt 0.104911 0.000032
vt 0.000032 0.104911
vt 0.999968 0.000032
vt 0.000032 0.000032
vt 0.104911 0.999968
vt 0.000032 0.999968
vt 0.000032 0.999968
vt 0.127621 0.872379
vt 0.000032 0.999968
vt 0.999968 0.104911
vt 0.104911 0.000032
vt 0.000032 0.999968
vt 0.127621 0.872379
vt 0.000032 0.999968
vt 0.999968 0.104911
vt 0.104911 0.000032
vt 0.000032 0.999968
vt 0.127621 0.872379
vt 0.000032 0.999968
vt 0.999968 0.104911
vt 0.104911 0.000032
vt 0.000032 0.999968
vt 0.999900 0.999900
vt 0.127622 0.127622
vt 0.000032 0.999968
vt 0.999968 0.104911
vt 0.104911 0.000032
vt 0.000032 0.999968
vt 0.127621 0.872379
vt 0.000032 0.999968
vt 0.999968 0.104911
vt 0.104911 0.000032
vt 0.000032 0.999968
vt 0.127621 0.872379
vt 0.000032 0.999968
vt 0.999968 0.104911
vt 0.104911 0.000032
vn 1.0000 -0.0000 0.0000
vn 0.0000 -0.0000 -1.0000
vn 0.0000 1.0000 0.0000
vn -1.0000 0.0000 0.0000
vn -0.0000 -1.0000 0.0000
vn 0.0000 -0.0000 1.0000
usemtl Material
s off
f 6/1/1 12/2/1 8/3/1
f 6/4/2 1/5/2 5/6/2
f 7/7/2 4/8/2 8/9/2
f 5/6/2 3/10/2 7/7/2
f 8/9/2 2/11/2 6/4/2
f 9/12/2 12/13/2 10/14/2
f 8/15/3 11/16/3 7/17/3
f 7/18/4 9/19/4 5/20/4
f 5/20/5 10/21/5 6/22/5
f 24/23/1 18/24/1 20/25/1
f 13/26/6 18/27/6 17/28/6
f 16/29/6 19/30/6 20/31/6
f 15/32/6 17/28/6 19/30/6
f 14/33/6 20/31/6 18/27/6
f 24/34/6 21/35/6 22/36/6
f 23/37/3 20/38/3 19/39/3
f 21/40/4 19/41/4 17/42/4
f 22/43/5 17/42/5 18/44/5
f 30/45/3 36/46/3 32/47/3
f 29/48/1 26/49/1 25/50/1
f 31/51/1 28/52/1 32/53/1
f 29/48/1 27/54/1 31/51/1
f 30/55/1 28/52/1 26/49/1
f 33/56/1 36/57/1 34/58/1
f 32/59/2 35/60/2 31/61/2
f 31/62/5 33/63/5 29/64/5
f 29/64/6 34/65/6 30/66/6
f 48/67/3 42/68/3 44/69/3
f 37/70/4 42/71/4 41/72/4
f 44/73/4 39/74/4 43/75/4
f 43/75/4 37/70/4 41/72/4
f 38/76/4 44/73/4 42/71/4
f 46/77/4 47/78/4 45/79/4
f 47/80/2 44/81/2 43/82/2
f 45/83/5 43/84/5 41/85/5
f 46/86/6 41/85/6 42/87/6
f 54/88/1 60/89/1 56/90/1
f 54/91/5 49/92/5 53/93/5
f 55/94/5 52/95/5 56/96/5
f 55/94/5 49/92/5 51/97/5
f 56/96/5 50/98/5 54/91/5
f 57/99/5 60/100/5 58/101/5
f 56/102/2 59/103/2 55/104/2
f 55/105/4 57/106/4 53/107/4
f 53/107/6 58/108/6 54/109/6
f 72/110/1 66/111/1 68/112/1
f 61/113/3 66/114/3 65/115/3
f 64/116/3 67/117/3 68/118/3
f 63/119/3 65/115/3 67/117/3
f 62/120/3 68/118/3 66/114/3
f 72/121/3 69/122/3 70/123/3
f 71/124/2 68/125/2 67/126/2
f 69/127/4 67/128/4 65/129/4
f 70/130/6 65/129/6 66/131/6
f 6/1/1 10/132/1 12/2/1
f 6/4/2 2/11/2 1/5/2
f 7/7/2 3/10/2 4/8/2
f 5/6/2 1/5/2 3/10/2
f 8/9/2 4/8/2 2/11/2
f 9/12/2 11/133/2 12/13/2
f 8/15/3 12/134/3 11/16/3
f 7/18/4 11/135/4 9/19/4
f 5/20/5 9/136/5 10/21/5
f 24/23/1 22/137/1 18/24/1
f 13/26/6 14/33/6 18/27/6
f 16/29/6 15/32/6 19/30/6
f 15/32/6 13/26/6 17/28/6
f 14/33/6 16/29/6 20/31/6
f 24/34/6 23/138/6 21/35/6
f 23/37/3 24/139/3 20/38/3
f 21/40/4 23/140/4 19/41/4
f 22/43/5 21/141/5 17/42/5
f 30/45/3 34/142/3 36/46/3
f 29/48/1 30/55/1 26/49/1
f 31/51/1 27/54/1 28/52/1
f 29/48/1 25/50/1 27/54/1
f 30/55/1 32/53/1 28/52/1
f 33/56/1 35/143/1 36/57/1
f 32/59/2 36/144/2 35/60/2
f 31/62/5 35/145/5 33/63/5
f 29/64/6 33/146/6 34/65/6
f 48/67/3 46/147/3 42/68/3
f 37/70/4 38/76/4 42/71/4
f 44/73/4 40/148/4 39/74/4
f 43/75/4 39/74/4 37/70/4
f 38/76/4 40/148/4 44/73/4
f 46/77/4 48/149/4 47/78/4
f 47/80/2 48/150/2 44/81/2
f 45/83/5 47/151/5 43/84/5
f 46/86/6 45/152/6 41/85/6
f 54/88/1 58/153/1 60/89/1
f 54/91/5 50/98/5 49/92/5
f 55/94/5 51/97/5 52/95/5
f 55/94/5 53/93/5 49/92/5
f 56/96/5 52/95/5 50/98/5
f 57/99/5 59/154/5 60/100/5
f 56/102/2 60/155/2 59/103/2
f 55/105/4 59/156/4 57/106/4
f 53/107/6 57/157/6 58/108/6
f 72/110/1 70/158/1 66/111/1
f 61/113/3 62/120/3 66/114/3
f 64/116/3 63/119/3 67/117/3
f 63/119/3 61/113/3 65/115/3
f 62/120/3 64/116/3 68/118/3
f 72/121/3 71/159/3 69/122/3
f 71/124/2 72/160/2 68/125/2
f 69/127/4 71/161/4 67/128/4
f 70/130/6 69/162/6 65/129/6
