# Blender v2.79 (sub 0) OBJ File: 'wheel.blend'
# www.blender.org
mtllib wheel.mtl
o Circle
v 0.250000 0.195494 -0.063520
v 0.250000 0.195494 0.063520
v 0.221864 0.195494 0.063520
v 0.221864 0.195494 -0.063520
v 0.250000 0.120822 -0.166297
v 0.250000 0.000000 -0.205554
v 0.239949 0.000000 -0.300349
v 0.239949 0.176541 -0.242988
v 0.239949 0.285649 -0.092813
v 0.239949 0.285649 0.092813
v 0.250000 0.120822 0.166297
v 0.239949 0.176541 0.242988
v 0.250000 -0.000000 0.205554
v 0.239949 -0.000000 0.300349
v 0.250000 -0.120822 0.166297
v 0.239949 -0.176541 0.242988
v 0.250000 -0.195494 0.063520
v 0.239949 -0.285649 0.092813
v 0.250000 -0.195494 -0.063520
v 0.239949 -0.285649 -0.092813
v 0.250000 -0.120822 -0.166297
v 0.239949 -0.176541 -0.242988
v 0.221865 0.073753 0.023964
v 0.221865 0.045582 0.062739
v 0.273600 0.045582 0.062739
v 0.273600 0.073753 0.023964
v 0.221865 0.000000 -0.205554
v 0.221865 -0.120822 -0.166297
v 0.221865 -0.195494 0.063520
v 0.221865 -0.120822 0.166297
v 0.221864 0.120822 0.166297
v 0.221864 0.120822 -0.166297
v 0.221865 -0.195494 -0.063520
v 0.221865 -0.000000 0.205554
v 0.221865 0.045582 -0.062738
v 0.221865 0.000000 -0.077549
v 0.221865 0.073753 -0.023964
v 0.221865 -0.000000 0.077549
v 0.221865 -0.045582 0.062738
v 0.221865 -0.073753 0.023964
v 0.221865 -0.073753 -0.023964
v 0.221865 -0.045582 -0.062739
v 0.273600 0.045582 -0.062738
v 0.273600 0.073753 -0.023964
v 0.273600 -0.000000 0.077549
v 0.273600 -0.045582 0.062738
v 0.273600 -0.073753 0.023964
v 0.273600 -0.073753 -0.023964
v 0.273600 -0.045582 -0.062739
v 0.273600 0.000000 -0.077549
v 0.205698 0.318194 0.103388
v 0.205698 0.318195 -0.103388
v 0.000000 0.338775 -0.110075
v 0.000000 0.338775 0.110075
v 0.205698 0.000000 -0.334569
v 0.205698 -0.196655 -0.270673
v 0.000000 -0.209374 -0.288180
v 0.000000 0.000000 -0.356209
v 0.205698 -0.318195 0.103388
v 0.205698 -0.196655 0.270672
v 0.000000 -0.209375 0.288179
v 0.000000 -0.338775 0.110075
v 0.205698 0.196655 0.270673
v 0.000000 0.209374 0.288179
v 0.205698 0.196655 -0.270672
v 0.000000 0.209375 -0.288179
v 0.205698 -0.318194 -0.103388
v 0.000000 -0.338775 -0.110075
v 0.205698 -0.000000 0.334569
v 0.000000 -0.000000 0.356209
v -0.250000 0.195494 -0.063520
v -0.221865 0.195494 -0.063520
v -0.221865 0.195494 0.063520
v -0.250000 0.195494 0.063520
v -0.250000 0.120822 -0.166297
v -0.239949 0.176541 -0.242988
v -0.239949 0.000000 -0.300349
v -0.250000 0.000000 -0.205554
v -0.239949 0.285649 -0.092813
v -0.239949 0.285649 0.092813
v -0.250000 0.120822 0.166297
v -0.239949 0.176541 0.242988
v -0.250000 -0.000000 0.205554
v -0.239949 -0.000000 0.300349
v -0.250000 -0.120822 0.166297
v -0.239949 -0.176541 0.242988
v -0.250000 -0.195494 0.063520
v -0.239949 -0.285649 0.092813
v -0.250000 -0.195494 -0.063520
v -0.239949 -0.285649 -0.092813
v -0.250000 -0.120822 -0.166297
v -0.239949 -0.176541 -0.242988
v -0.221865 0.073753 0.023964
v -0.273600 0.073753 0.023964
v -0.273600 0.045582 0.062739
v -0.221865 0.045582 0.062739
v -0.221864 -0.120822 -0.166297
v -0.221865 0.000000 -0.205554
v -0.221864 -0.120822 0.166297
v -0.221864 -0.195494 0.063520
v -0.221865 0.120822 0.166297
v -0.221865 0.120822 -0.166297
v -0.221864 -0.195494 -0.063520
v -0.221865 -0.000000 0.205554
v -0.221865 0.045582 -0.062738
v -0.221865 0.000000 -0.077549
v -0.221865 0.073753 -0.023964
v -0.221865 -0.000000 0.077549
v -0.221865 -0.045582 0.062738
v -0.221865 -0.073754 0.023964
v -0.221865 -0.073753 -0.023964
v -0.221865 -0.045582 -0.062739
v -0.273600 0.045582 -0.062738
v -0.273600 0.000000 -0.077549
v -0.273600 -0.045582 -0.062739
v -0.273600 -0.073753 -0.023964
v -0.273600 -0.073754 0.023964
v -0.273600 -0.045582 0.062738
v -0.273600 -0.000000 0.077549
v -0.273600 0.073753 -0.023964
v -0.205698 0.318194 0.103388
v -0.205698 0.318195 -0.103388
v -0.205698 0.000000 -0.334569
v -0.205698 -0.196655 -0.270673
v -0.205698 -0.318195 0.103388
v -0.205698 -0.196655 0.270672
v -0.205698 0.196655 0.270673
v -0.205698 0.196655 -0.270672
v -0.205698 -0.318194 -0.103388
v -0.205698 -0.000000 0.334569
vt 0.330500 0.830481
vt 0.413092 0.812189
vt 0.413092 0.830481
vt 0.582781 0.305476
vt 0.695492 0.312207
vt 0.600580 0.363243
vt 0.496661 0.320094
vt 0.494508 0.380356
vt 0.388857 0.361721
vt 0.410667 0.305618
vt 0.295321 0.309343
vt 0.334354 0.263694
vt 0.224476 0.228664
vt 0.276431 0.198929
vt 0.244609 0.118449
vt 0.185259 0.127261
vt 0.248945 0.031086
vt 0.187562 0.007846
vt 0.753227 0.023446
vt 0.814098 0.130056
vt 0.752346 0.115115
vt 0.769196 0.232376
vt 0.718429 0.197696
vt 0.659530 0.263248
vt 0.428621 0.733431
vt 0.459781 0.699796
vt 0.459781 0.733431
vt 0.578275 0.830480
vt 0.660867 0.812189
vt 0.660867 0.830480
vt 0.000132 0.830481
vt 0.082724 0.812189
vt 0.082724 0.830481
vt 0.247908 0.830481
vt 0.330500 0.812189
vt 0.495684 0.830481
vt 0.578275 0.812189
vt 0.743459 0.830480
vt 0.826050 0.812189
vt 0.826050 0.830480
vt 0.165316 0.812189
vt 0.247908 0.812189
vt 0.495684 0.812189
vt 0.743459 0.812189
vt 0.165316 0.830481
vt 0.175177 0.662708
vt 0.254324 0.719584
vt 0.175177 0.693868
vt 0.156862 0.719076
vt 0.205777 0.786402
vt 0.127228 0.811924
vt 0.127228 0.728705
vt 0.048678 0.786402
vt 0.097594 0.719076
vt 0.000132 0.719584
vt 0.079279 0.693868
vt 0.000132 0.636992
vt 0.079279 0.662708
vt 0.097594 0.637500
vt 0.048678 0.570174
vt 0.127228 0.544652
vt 0.127228 0.627871
vt 0.205777 0.570174
vt 0.156862 0.637500
vt 0.254324 0.636992
vt 0.675079 0.745705
vt 0.704713 0.654501
vt 0.734347 0.745705
vt 0.522099 0.733431
vt 0.553258 0.699796
vt 0.553258 0.733431
vt 0.615577 0.733431
vt 0.646736 0.699796
vt 0.646736 0.733431
vt 0.397462 0.733431
vt 0.428622 0.699796
vt 0.490940 0.733431
vt 0.522099 0.699796
vt 0.584417 0.733431
vt 0.615577 0.699796
vt 0.366303 0.733431
vt 0.397462 0.699796
vt 0.490940 0.699796
vt 0.584417 0.699796
vt 0.335144 0.733431
vt 0.366303 0.699796
vt 0.494429 0.408829
vt 0.338653 0.517900
vt 0.379429 0.388562
vt 0.793602 0.248231
vt 0.799653 0.438773
vt 0.713148 0.334787
vt 0.156530 0.132884
vt 0.000132 0.007895
vt 0.155219 0.000133
vt 0.196502 0.440537
vt 0.277536 0.331571
vt 0.609855 0.390221
vt 0.657950 0.516977
vt 0.856305 0.000132
vt 0.972238 0.173452
vt 0.843781 0.137276
vt 0.200090 0.243710
vt 0.087245 0.320933
vt 0.498350 0.544387
vt 0.907741 0.319104
vt 0.021408 0.172091
vt 0.821312 0.004844
vt 0.413092 0.812189
vt 0.330500 0.830481
vt 0.413092 0.830481
vt 0.582781 0.305476
vt 0.695492 0.312207
vt 0.659530 0.263248
vt 0.496661 0.320094
vt 0.600580 0.363243
vt 0.388857 0.361721
vt 0.410667 0.305618
vt 0.334354 0.263694
vt 0.224476 0.228664
vt 0.276431 0.198929
vt 0.244609 0.118449
vt 0.248945 0.031086
vt 0.185259 0.127261
vt 0.814098 0.130056
vt 0.753227 0.023446
vt 0.752346 0.115115
vt 0.769196 0.232376
vt 0.718429 0.197696
vt 0.459781 0.699796
vt 0.428621 0.733431
vt 0.459781 0.733431
vt 0.660867 0.830480
vt 0.578275 0.812189
vt 0.578275 0.830480
vt 0.082724 0.812189
vt 0.000132 0.830481
vt 0.082724 0.830481
vt 0.330500 0.812189
vt 0.247908 0.830481
vt 0.495684 0.830481
vt 0.826050 0.812189
vt 0.743459 0.830480
vt 0.826050 0.830480
vt 0.247908 0.812189
vt 0.165316 0.830481
vt 0.495684 0.812189
vt 0.743459 0.812189
vt 0.165316 0.812189
vt 0.254324 0.719584
vt 0.175177 0.662708
vt 0.175177 0.693868
vt 0.156862 0.719076
vt 0.127228 0.811924
vt 0.127228 0.728705
vt 0.048678 0.786402
vt 0.097594 0.719076
vt 0.000132 0.719584
vt 0.079279 0.693868
vt 0.000132 0.636992
vt 0.079279 0.662708
vt 0.048678 0.570174
vt 0.097594 0.637500
vt 0.127228 0.544652
vt 0.127228 0.627871
vt 0.205777 0.570174
vt 0.156862 0.637500
vt 0.254324 0.636992
vt 0.656764 0.689338
vt 0.675079 0.745705
vt 0.734347 0.745705
vt 0.553258 0.699796
vt 0.522099 0.733431
vt 0.553258 0.733431
vt 0.646736 0.699796
vt 0.615577 0.733431
vt 0.646736 0.733431
vt 0.428622 0.699796
vt 0.397462 0.733431
vt 0.522099 0.699796
vt 0.490940 0.733431
vt 0.615577 0.699796
vt 0.584417 0.733431
vt 0.397462 0.699796
vt 0.366303 0.733431
vt 0.490940 0.699796
vt 0.584417 0.699796
vt 0.366303 0.699796
vt 0.335144 0.733431
vt 0.494429 0.408829
vt 0.379429 0.388562
vt 0.713148 0.334787
vt 0.793602 0.248231
vt 0.155219 0.000133
vt 0.156530 0.132884
vt 0.277536 0.331571
vt 0.609855 0.390221
vt 0.856305 0.000132
vt 0.843781 0.137276
vt 0.200090 0.243710
vt 0.494508 0.380356
vt 0.295321 0.309343
vt 0.821312 0.004844
vt 0.187562 0.007846
vt 0.000132 0.812189
vt 0.752662 0.689338
vt 0.752662 0.720497
vt 0.704713 0.755334
vt 0.656764 0.720497
vt 0.656764 0.689338
vt 0.675079 0.664129
vt 0.734347 0.664129
vt 0.335144 0.699796
vt 0.999868 0.021461
vt 0.660867 0.812189
vt 0.000132 0.812189
vt 0.205777 0.786402
vt 0.752662 0.720497
vt 0.704713 0.654501
vt 0.752662 0.689338
vt 0.734347 0.664129
vt 0.675079 0.664129
vt 0.656764 0.720497
vt 0.704713 0.755334
vt 0.335144 0.699796
vn 0.0000 -1.0000 -0.0000
vn 0.9938 0.0342 -0.1054
vn 0.9938 0.0896 -0.0651
vn 0.9938 0.1108 0.0000
vn 0.9938 0.0896 0.0651
vn 0.9938 0.0342 0.1054
vn 0.9938 -0.0342 0.1054
vn 0.9938 -0.0896 0.0651
vn 0.9938 -0.1108 -0.0000
vn 0.9938 -0.0896 -0.0651
vn 0.9938 -0.0342 -0.1054
vn 0.0000 0.8090 0.5878
vn 0.0000 0.3090 0.9511
vn 0.0000 0.8090 -0.5878
vn 0.0000 -0.8090 -0.5878
vn 0.0000 -0.3090 0.9511
vn 0.0000 1.0000 0.0000
vn 0.0000 -0.3090 -0.9511
vn 0.0000 -0.8090 0.5878
vn 0.0000 0.3090 -0.9511
vn 1.0000 0.0000 -0.0000
vn 0.0996 0.9950 0.0000
vn 0.0996 -0.3075 -0.9463
vn 0.0996 -0.8050 0.5849
vn 0.0996 0.8050 0.5849
vn 0.0996 0.3075 -0.9463
vn 0.0996 -0.9950 -0.0000
vn 0.0996 0.3075 0.9463
vn 0.0996 0.8050 -0.5849
vn 0.0996 -0.8050 -0.5849
vn 0.0996 -0.3075 0.9463
vn 0.6888 -0.2240 0.6894
vn 0.6888 -0.5865 -0.4261
vn 0.6888 0.5865 -0.4261
vn 0.6888 0.2240 0.6894
vn 0.6888 -0.7249 -0.0000
vn 0.6888 0.2240 -0.6894
vn 0.6888 0.5865 0.4261
vn 0.6888 -0.5865 0.4261
vn 0.6888 -0.2240 -0.6894
vn 0.6888 0.7249 0.0000
vn -0.9938 0.0342 -0.1054
vn -0.9938 0.0896 -0.0651
vn -0.9938 0.1108 0.0000
vn -0.9938 0.0896 0.0651
vn -0.9938 0.0342 0.1054
vn -0.9938 -0.0342 0.1054
vn -0.9938 -0.0896 0.0651
vn -0.9938 -0.1108 -0.0000
vn -0.9938 -0.0896 -0.0651
vn -0.9938 -0.0342 -0.1054
vn -1.0000 0.0000 0.0000
vn -0.0996 0.9950 0.0000
vn -0.0996 -0.3075 -0.9463
vn -0.0996 -0.8050 0.5849
vn -0.0996 0.8050 0.5849
vn -0.0996 0.3075 -0.9463
vn -0.0996 -0.9950 -0.0000
vn -0.0996 0.3075 0.9463
vn -0.0996 0.8050 -0.5849
vn -0.0996 -0.8050 -0.5849
vn -0.0996 -0.3075 0.9463
vn -0.6888 -0.2240 0.6894
vn -0.6888 -0.5865 -0.4261
vn -0.6888 0.5865 -0.4261
vn -0.6888 0.2240 0.6894
vn -0.6888 -0.7249 -0.0000
vn -0.6888 0.2240 -0.6894
vn -0.6888 0.5865 0.4261
vn -0.6888 -0.5865 0.4261
vn -0.6888 -0.2240 -0.6894
vn -0.6888 0.7249 0.0000
usemtl Material
s off
f 2/1/1 4/2/1 1/3/1
f 5/4/2 7/5/2 8/6/2
f 1/7/3 8/6/3 9/8/3
f 1/7/4 10/9/4 2/10/4
f 2/10/5 12/11/5 11/12/5
f 11/12/6 14/13/6 13/14/6
f 15/15/7 14/13/7 16/16/7
f 17/17/8 16/16/8 18/18/8
f 17/19/9 20/20/9 19/21/9
f 19/21/10 22/22/10 21/23/10
f 21/23/11 7/5/11 6/24/11
f 24/25/12 26/26/12 23/27/12
f 6/28/13 28/29/13 21/30/13
f 17/31/14 30/32/14 15/33/14
f 11/34/15 3/35/15 2/1/15
f 5/36/16 27/37/16 6/28/16
f 19/38/17 29/39/17 17/40/17
f 11/34/18 34/41/18 31/42/18
f 1/3/19 32/43/19 5/36/19
f 21/30/12 33/44/12 19/38/12
f 15/33/20 34/41/20 13/45/20
f 36/46/21 32/47/21 35/48/21
f 37/49/21 32/47/21 4/50/21
f 37/49/21 3/51/21 23/52/21
f 23/52/21 31/53/21 24/54/21
f 24/54/21 34/55/21 38/56/21
f 38/56/21 30/57/21 39/58/21
f 40/59/21 30/57/21 29/60/21
f 40/59/21 33/61/21 41/62/21
f 41/62/21 28/63/21 42/64/21
f 42/64/21 27/65/21 36/46/21
f 25/66/21 48/67/21 44/68/21
f 35/69/20 50/70/20 36/71/20
f 41/72/1 47/73/1 40/74/1
f 38/75/13 25/76/13 24/25/13
f 37/77/14 43/78/14 35/69/14
f 42/79/15 48/80/15 41/72/15
f 39/81/16 45/82/16 38/75/16
f 23/27/17 44/83/17 37/77/17
f 36/71/18 49/84/18 42/79/18
f 40/85/19 46/86/19 39/81/19
f 52/87/22 54/88/22 51/89/22
f 56/90/23 58/91/23 55/92/23
f 60/93/24 62/94/24 59/95/24
f 51/89/25 64/96/25 63/97/25
f 65/98/26 58/91/26 66/99/26
f 59/100/27 68/101/27 67/102/27
f 69/103/28 64/96/28 70/104/28
f 65/98/29 53/105/29 52/87/29
f 56/90/30 68/101/30 57/106/30
f 60/93/31 70/104/31 61/107/31
f 14/13/32 60/93/32 16/16/32
f 20/20/33 56/90/33 22/22/33
f 8/6/34 52/87/34 9/8/34
f 12/11/35 69/103/35 14/13/35
f 18/108/36 67/102/36 20/20/36
f 7/5/37 65/98/37 8/6/37
f 12/11/38 51/89/38 63/97/38
f 16/16/39 59/95/39 18/18/39
f 22/22/40 55/92/40 7/5/40
f 9/8/41 51/89/41 10/9/41
f 72/109/1 74/110/1 71/111/1
f 75/112/42 77/113/42 78/114/42
f 71/115/43 76/116/43 75/112/43
f 80/117/44 71/115/44 74/118/44
f 81/119/45 80/117/45 74/118/45
f 84/120/46 81/119/46 83/121/46
f 85/122/47 84/120/47 83/121/47
f 87/123/48 86/124/48 85/122/48
f 90/125/49 87/126/49 89/127/49
f 92/128/50 89/127/50 91/129/50
f 77/113/51 91/129/51 78/114/51
f 94/130/12 96/131/12 93/132/12
f 91/133/13 98/134/13 78/135/13
f 99/136/14 87/137/14 85/138/14
f 73/139/15 81/140/15 74/110/15
f 98/134/16 75/141/16 78/135/16
f 100/142/17 89/143/17 87/144/17
f 101/145/18 83/146/18 81/140/18
f 102/147/19 71/111/19 75/141/19
f 103/148/12 91/133/12 89/143/12
f 104/149/20 85/138/20 83/146/20
f 102/150/52 106/151/52 105/152/52
f 107/153/52 102/150/52 105/152/52
f 73/154/52 107/153/52 93/155/52
f 101/156/52 93/155/52 96/157/52
f 104/158/52 96/157/52 108/159/52
f 99/160/52 108/159/52 109/161/52
f 100/162/52 109/161/52 110/163/52
f 103/164/52 110/163/52 111/165/52
f 97/166/52 111/165/52 112/167/52
f 98/168/52 112/167/52 106/151/52
f 118/169/52 95/170/52 120/171/52
f 114/172/20 105/173/20 106/174/20
f 117/175/1 111/176/1 110/177/1
f 95/178/13 108/179/13 96/131/13
f 113/180/14 107/181/14 105/173/14
f 116/182/15 112/183/15 111/176/15
f 119/184/16 109/185/16 108/179/16
f 120/186/17 93/132/17 107/181/17
f 115/187/18 106/174/18 112/183/18
f 118/188/19 110/189/19 109/185/19
f 54/88/53 122/190/53 121/191/53
f 123/192/54 57/106/54 124/193/54
f 125/194/55 61/107/55 126/195/55
f 64/96/56 121/191/56 127/196/56
f 66/99/57 123/192/57 128/197/57
f 68/101/58 125/198/58 129/199/58
f 130/200/59 64/96/59 127/196/59
f 122/190/60 66/99/60 128/197/60
f 57/106/61 129/199/61 124/193/61
f 61/107/62 130/200/62 126/195/62
f 86/124/63 130/200/63 84/120/63
f 92/128/64 129/199/64 90/125/64
f 122/190/65 76/116/65 79/201/65
f 130/200/66 82/202/66 84/120/66
f 129/199/67 88/203/67 90/125/67
f 128/197/68 77/113/68 76/116/68
f 82/202/69 121/191/69 80/117/69
f 125/194/70 86/124/70 88/204/70
f 123/192/71 92/128/71 77/113/71
f 121/191/72 79/201/72 80/117/72
f 2/1/1 3/35/1 4/2/1
f 5/4/2 6/24/2 7/5/2
f 1/7/3 5/4/3 8/6/3
f 1/7/4 9/8/4 10/9/4
f 2/10/5 10/9/5 12/11/5
f 11/12/6 12/11/6 14/13/6
f 15/15/7 13/14/7 14/13/7
f 17/17/8 15/15/8 16/16/8
f 17/19/9 18/108/9 20/20/9
f 19/21/10 20/20/10 22/22/10
f 21/23/11 22/22/11 7/5/11
f 24/25/12 25/76/12 26/26/12
f 6/28/13 27/37/13 28/29/13
f 17/31/14 29/205/14 30/32/14
f 11/34/15 31/42/15 3/35/15
f 5/36/16 32/43/16 27/37/16
f 19/38/17 33/44/17 29/39/17
f 11/34/18 13/45/18 34/41/18
f 1/3/19 4/2/19 32/43/19
f 21/30/12 28/29/12 33/44/12
f 15/33/20 30/32/20 34/41/20
f 36/46/21 27/65/21 32/47/21
f 37/49/21 35/48/21 32/47/21
f 37/49/21 4/50/21 3/51/21
f 23/52/21 3/51/21 31/53/21
f 24/54/21 31/53/21 34/55/21
f 38/56/21 34/55/21 30/57/21
f 40/59/21 39/58/21 30/57/21
f 40/59/21 29/60/21 33/61/21
f 41/62/21 33/61/21 28/63/21
f 42/64/21 28/63/21 27/65/21
f 50/206/21 43/207/21 44/68/21
f 44/68/21 26/208/21 25/66/21
f 25/66/21 45/209/21 46/210/21
f 46/210/21 47/211/21 48/67/21
f 48/67/21 49/212/21 50/206/21
f 50/206/21 44/68/21 48/67/21
f 25/66/21 46/210/21 48/67/21
f 35/69/20 43/78/20 50/70/20
f 41/72/1 48/80/1 47/73/1
f 38/75/13 45/82/13 25/76/13
f 37/77/14 44/83/14 43/78/14
f 42/79/15 49/84/15 48/80/15
f 39/81/16 46/86/16 45/82/16
f 23/27/17 26/26/17 44/83/17
f 36/71/18 50/70/18 49/84/18
f 40/85/19 47/213/19 46/86/19
f 52/87/22 53/105/22 54/88/22
f 56/90/23 57/106/23 58/91/23
f 60/93/24 61/107/24 62/94/24
f 51/89/25 54/88/25 64/96/25
f 65/98/26 55/92/26 58/91/26
f 59/100/27 62/214/27 68/101/27
f 69/103/28 63/97/28 64/96/28
f 65/98/29 66/99/29 53/105/29
f 56/90/30 67/102/30 68/101/30
f 60/93/31 69/103/31 70/104/31
f 14/13/32 69/103/32 60/93/32
f 20/20/33 67/102/33 56/90/33
f 8/6/34 65/98/34 52/87/34
f 12/11/35 63/97/35 69/103/35
f 18/108/36 59/100/36 67/102/36
f 7/5/37 55/92/37 65/98/37
f 12/11/38 10/9/38 51/89/38
f 16/16/39 60/93/39 59/95/39
f 22/22/40 56/90/40 55/92/40
f 9/8/41 52/87/41 51/89/41
f 72/109/1 73/139/1 74/110/1
f 75/112/42 76/116/42 77/113/42
f 71/115/43 79/201/43 76/116/43
f 80/117/44 79/201/44 71/115/44
f 81/119/45 82/202/45 80/117/45
f 84/120/46 82/202/46 81/119/46
f 85/122/47 86/124/47 84/120/47
f 87/123/48 88/204/48 86/124/48
f 90/125/49 88/203/49 87/126/49
f 92/128/50 90/125/50 89/127/50
f 77/113/51 92/128/51 91/129/51
f 94/130/12 95/178/12 96/131/12
f 91/133/13 97/215/13 98/134/13
f 99/136/14 100/216/14 87/137/14
f 73/139/15 101/145/15 81/140/15
f 98/134/16 102/147/16 75/141/16
f 100/142/17 103/148/17 89/143/17
f 101/145/18 104/149/18 83/146/18
f 102/147/19 72/109/19 71/111/19
f 103/148/12 97/215/12 91/133/12
f 104/149/20 99/136/20 85/138/20
f 102/150/52 98/168/52 106/151/52
f 107/153/52 72/217/52 102/150/52
f 73/154/52 72/217/52 107/153/52
f 101/156/52 73/154/52 93/155/52
f 104/158/52 101/156/52 96/157/52
f 99/160/52 104/158/52 108/159/52
f 100/162/52 99/160/52 109/161/52
f 103/164/52 100/162/52 110/163/52
f 97/166/52 103/164/52 111/165/52
f 98/168/52 97/166/52 112/167/52
f 120/171/52 113/218/52 116/219/52
f 114/220/52 115/221/52 116/219/52
f 116/219/52 117/222/52 118/169/52
f 118/169/52 119/223/52 95/170/52
f 95/170/52 94/224/52 120/171/52
f 113/218/52 114/220/52 116/219/52
f 116/219/52 118/169/52 120/171/52
f 114/172/20 113/180/20 105/173/20
f 117/175/1 116/182/1 111/176/1
f 95/178/13 119/184/13 108/179/13
f 113/180/14 120/186/14 107/181/14
f 116/182/15 115/187/15 112/183/15
f 119/184/16 118/188/16 109/185/16
f 120/186/17 94/130/17 93/132/17
f 115/187/18 114/172/18 106/174/18
f 118/188/19 117/225/19 110/189/19
f 54/88/53 53/105/53 122/190/53
f 123/192/54 58/91/54 57/106/54
f 125/194/55 62/94/55 61/107/55
f 64/96/56 54/88/56 121/191/56
f 66/99/57 58/91/57 123/192/57
f 68/101/58 62/214/58 125/198/58
f 130/200/59 70/104/59 64/96/59
f 122/190/60 53/105/60 66/99/60
f 57/106/61 68/101/61 129/199/61
f 61/107/62 70/104/62 130/200/62
f 86/124/63 126/195/63 130/200/63
f 92/128/64 124/193/64 129/199/64
f 122/190/65 128/197/65 76/116/65
f 130/200/66 127/196/66 82/202/66
f 129/199/67 125/198/67 88/203/67
f 128/197/68 123/192/68 77/113/68
f 82/202/69 127/196/69 121/191/69
f 125/194/70 126/195/70 86/124/70
f 123/192/71 124/193/71 92/128/71
f 121/191/72 122/190/72 79/201/72
